<?xml version="1.0" encoding="UTF-8" standalone="no"?>
<!-- Created with Inkscape (http://www.inkscape.org/) -->

<svg
   xmlns:dc="http://purl.org/dc/elements/1.1/"
   xmlns:cc="http://creativecommons.org/ns#"
   xmlns:rdf="http://www.w3.org/1999/02/22-rdf-syntax-ns#"
   xmlns:svg="http://www.w3.org/2000/svg"
   xmlns="http://www.w3.org/2000/svg"
   version="1.1"
   width="630"
   height="630"
   id="svg2985"
   xml:space="preserve"><metadata
     id="metadata2991"><rdf:RDF><cc:Work
         rdf:about=""><dc:format>image/svg+xml</dc:format><dc:type
           rdf:resource="http://purl.org/dc/dcmitype/StillImage" /><dc:title></dc:title></cc:Work></rdf:RDF></metadata><defs
     id="defs2989"><clipPath
       id="clipPath3001"><path
         d="m 49,312.96 177.9,0 0,142.04 -177.9,0 0,-142.04 z"
         id="path3003" /></clipPath><clipPath
       id="clipPath3091"><path
         d="m 0,252 252,0 0,252 -252,0 0,-252 z"
         id="path3093" /></clipPath><clipPath
       id="clipPath3107"><path
         d="m 301,312.96 177.9,0 0,142.04 -177.9,0 0,-142.04 z"
         id="path3109" /></clipPath><clipPath
       id="clipPath3115"><path
         d="m 301,312.96 177.9,0 0,142.04 -177.9,0 0,-142.04 z"
         id="path3117" /></clipPath><clipPath
       id="clipPath3205"><path
         d="m 252,252 252,0 0,252 -252,0 0,-252 z"
         id="path3207" /></clipPath><clipPath
       id="clipPath3221"><path
         d="m 49,60.96 177.9,0 0,142.04 L 49,203 49,60.96 z"
         id="path3223" /></clipPath><clipPath
       id="clipPath3229"><path
         d="m 49,60.96 177.9,0 0,142.04 L 49,203 49,60.96 z"
         id="path3231" /></clipPath><clipPath
       id="clipPath3319"><path
         d="M 0,0 252,0 252,252 0,252 0,0 z"
         id="path3321" /></clipPath><clipPath
       id="clipPath3335"><path
         d="m 301,60.96 177.9,0 0,142.04 -177.9,0 0,-142.04 z"
         id="path3337" /></clipPath><clipPath
       id="clipPath3343"><path
         d="m 301,60.96 177.9,0 0,142.04 -177.9,0 0,-142.04 z"
         id="path3345" /></clipPath><clipPath
       id="clipPath3433"><path
         d="m 252,0 252,0 0,252 -252,0 0,-252 z"
         id="path3435" /></clipPath></defs><g
     transform="matrix(1.25,0,0,-1.25,0,630)"
     id="g2993"><g
       id="g2995" /><g
       id="g2997"><g
         clip-path="url(#clipPath3001)"
         id="g2999"><path
           d="m 63.83,409.11 65.89,0"
           id="path3005"
           style="fill:none;stroke:#000000;stroke-width:2.25;stroke-linecap:butt;stroke-linejoin:round;stroke-miterlimit:10;stroke-opacity:1;stroke-dasharray:none" /><path
           d="m 96.77,375.99 0,21.85"
           id="path3007"
           style="fill:none;stroke:#000000;stroke-width:0.75;stroke-linecap:round;stroke-linejoin:round;stroke-miterlimit:10;stroke-opacity:1;stroke-dasharray:3, 5;stroke-dashoffset:0" /><path
           d="m 96.77,440.54 0,-22.55"
           id="path3009"
           style="fill:none;stroke:#000000;stroke-width:0.75;stroke-linecap:round;stroke-linejoin:round;stroke-miterlimit:10;stroke-opacity:1;stroke-dasharray:3, 5;stroke-dashoffset:0" /><path
           d="m 80.3,375.99 32.94,0"
           id="path3011"
           style="fill:none;stroke:#000000;stroke-width:0.75;stroke-linecap:round;stroke-linejoin:round;stroke-miterlimit:10;stroke-opacity:1;stroke-dasharray:none" /><path
           d="m 80.3,440.54 32.94,0"
           id="path3013"
           style="fill:none;stroke:#000000;stroke-width:0.75;stroke-linecap:round;stroke-linejoin:round;stroke-miterlimit:10;stroke-opacity:1;stroke-dasharray:none" /><path
           d="m 63.83,397.84 65.89,0 0,20.15 -65.89,0 0,-20.15"
           id="path3015"
           style="fill:none;stroke:#000000;stroke-width:0.75;stroke-linecap:round;stroke-linejoin:round;stroke-miterlimit:10;stroke-opacity:1;stroke-dasharray:none" /><path
           d="m 94.91,361.62 c 0,1.02 0.84,1.86 1.86,1.86 1.03,0 1.86,-0.84 1.86,-1.86 0,-1.03 -0.83,-1.86 -1.86,-1.86 -1.02,0 -1.86,0.83 -1.86,1.86"
           id="path3017"
           style="fill:none;stroke:#000000;stroke-width:0.75;stroke-linecap:round;stroke-linejoin:round;stroke-miterlimit:10;stroke-opacity:1;stroke-dasharray:none" /><path
           d="m 146.19,392.66 65.89,0"
           id="path3019"
           style="fill:none;stroke:#000000;stroke-width:2.25;stroke-linecap:butt;stroke-linejoin:round;stroke-miterlimit:10;stroke-opacity:1;stroke-dasharray:none" /><path
           d="m 179.13,383.85 0,4.6"
           id="path3021"
           style="fill:none;stroke:#000000;stroke-width:0.75;stroke-linecap:round;stroke-linejoin:round;stroke-miterlimit:10;stroke-opacity:1;stroke-dasharray:3, 5;stroke-dashoffset:0" /><path
           d="m 179.13,403.29 0,-4.97"
           id="path3023"
           style="fill:none;stroke:#000000;stroke-width:0.75;stroke-linecap:round;stroke-linejoin:round;stroke-miterlimit:10;stroke-opacity:1;stroke-dasharray:3, 5;stroke-dashoffset:0" /><path
           d="m 162.66,383.85 32.94,0"
           id="path3025"
           style="fill:none;stroke:#000000;stroke-width:0.75;stroke-linecap:round;stroke-linejoin:round;stroke-miterlimit:10;stroke-opacity:1;stroke-dasharray:none" /><path
           d="m 162.66,403.29 32.94,0"
           id="path3027"
           style="fill:none;stroke:#000000;stroke-width:0.75;stroke-linecap:round;stroke-linejoin:round;stroke-miterlimit:10;stroke-opacity:1;stroke-dasharray:none" /><path
           d="m 146.19,388.45 65.89,0 0,9.87 -65.89,0 0,-9.87"
           id="path3029"
           style="fill:none;stroke:#000000;stroke-width:0.75;stroke-linecap:round;stroke-linejoin:round;stroke-miterlimit:10;stroke-opacity:1;stroke-dasharray:none" /><path
           d="m 177.27,416.86 c 0,1.02 0.84,1.86 1.86,1.86 1.03,0 1.86,-0.84 1.86,-1.86 0,-1.03 -0.83,-1.86 -1.86,-1.86 -1.02,0 -1.86,0.83 -1.86,1.86"
           id="path3031"
           style="fill:none;stroke:#000000;stroke-width:0.75;stroke-linecap:round;stroke-linejoin:round;stroke-miterlimit:10;stroke-opacity:1;stroke-dasharray:none" /></g></g><g
       id="g3033"><path
         d="m 96.77,312.96 82.36,0"
         id="path3035"
         style="fill:none;stroke:#000000;stroke-width:0.75;stroke-linecap:round;stroke-linejoin:round;stroke-miterlimit:10;stroke-opacity:1;stroke-dasharray:none" /><path
         d="m 96.77,312.96 0,-5.98"
         id="path3037"
         style="fill:none;stroke:#000000;stroke-width:0.75;stroke-linecap:round;stroke-linejoin:round;stroke-miterlimit:10;stroke-opacity:1;stroke-dasharray:none" /><path
         d="m 179.13,312.96 0,-5.98"
         id="path3039"
         style="fill:none;stroke:#000000;stroke-width:0.75;stroke-linecap:round;stroke-linejoin:round;stroke-miterlimit:10;stroke-opacity:1;stroke-dasharray:none" /><text
         transform="matrix(1,0,0,-1,78.71,291.44)"
         id="text3041"><tspan
           x="0 7.7800002 11.11 16.67 22.23 27.790001 30.57"
           y="0"
           id="tspan3043"
           style="font-size:10px;font-variant:normal;font-weight:normal;writing-mode:lr-tb;fill:#000000;fill-opacity:1;fill-rule:nonzero;stroke:none;font-family:Liberation Sans,Arial,sans-serif;-inkscape-font-specification:Liberation Sans">Group 1</tspan></text>
<text
         transform="matrix(1,0,0,-1,161.07,291.44)"
         id="text3045"><tspan
           x="0 7.7800002 11.11 16.67 22.23 27.790001 30.57"
           y="0"
           id="tspan3047"
           style="font-size:10px;font-variant:normal;font-weight:normal;writing-mode:lr-tb;fill:#000000;fill-opacity:1;fill-rule:nonzero;stroke:none;font-family:Liberation Sans,Arial,sans-serif;-inkscape-font-specification:Liberation Sans">Group 2</tspan></text>
<path
         d="m 49,318.22 0,131.52"
         id="path3049"
         style="fill:none;stroke:#000000;stroke-width:0.75;stroke-linecap:round;stroke-linejoin:round;stroke-miterlimit:10;stroke-opacity:1;stroke-dasharray:none" /><path
         d="m 49,318.22 -5.97,0"
         id="path3051"
         style="fill:none;stroke:#000000;stroke-width:0.75;stroke-linecap:round;stroke-linejoin:round;stroke-miterlimit:10;stroke-opacity:1;stroke-dasharray:none" /><path
         d="m 49,344.52 -5.97,0"
         id="path3053"
         style="fill:none;stroke:#000000;stroke-width:0.75;stroke-linecap:round;stroke-linejoin:round;stroke-miterlimit:10;stroke-opacity:1;stroke-dasharray:none" /><path
         d="m 49,370.82 -5.97,0"
         id="path3055"
         style="fill:none;stroke:#000000;stroke-width:0.75;stroke-linecap:round;stroke-linejoin:round;stroke-miterlimit:10;stroke-opacity:1;stroke-dasharray:none" /><path
         d="m 49,397.13 -5.97,0"
         id="path3057"
         style="fill:none;stroke:#000000;stroke-width:0.75;stroke-linecap:round;stroke-linejoin:round;stroke-miterlimit:10;stroke-opacity:1;stroke-dasharray:none" /><path
         d="m 49,423.43 -5.97,0"
         id="path3059"
         style="fill:none;stroke:#000000;stroke-width:0.75;stroke-linecap:round;stroke-linejoin:round;stroke-miterlimit:10;stroke-opacity:1;stroke-dasharray:none" /><path
         d="m 49,449.74 -5.97,0"
         id="path3061"
         style="fill:none;stroke:#000000;stroke-width:0.75;stroke-linecap:round;stroke-linejoin:round;stroke-miterlimit:10;stroke-opacity:1;stroke-dasharray:none" /><text
         transform="matrix(0,1,1,0,34.66,315.44)"
         id="text3063"><tspan
           x="0"
           y="0"
           id="tspan3065"
           style="font-size:10px;font-variant:normal;font-weight:normal;writing-mode:lr-tb;fill:#000000;fill-opacity:1;fill-rule:nonzero;stroke:none;font-family:Liberation Sans,Arial,sans-serif;-inkscape-font-specification:Liberation Sans">0</tspan></text>
<text
         transform="matrix(0,1,1,0,34.66,338.96)"
         id="text3067"><tspan
           x="0 5.5599999"
           y="0"
           id="tspan3069"
           style="font-size:10px;font-variant:normal;font-weight:normal;writing-mode:lr-tb;fill:#000000;fill-opacity:1;fill-rule:nonzero;stroke:none;font-family:Liberation Sans,Arial,sans-serif;-inkscape-font-specification:Liberation Sans">20</tspan></text>
<text
         transform="matrix(0,1,1,0,34.66,365.26)"
         id="text3071"><tspan
           x="0 5.5599999"
           y="0"
           id="tspan3073"
           style="font-size:10px;font-variant:normal;font-weight:normal;writing-mode:lr-tb;fill:#000000;fill-opacity:1;fill-rule:nonzero;stroke:none;font-family:Liberation Sans,Arial,sans-serif;-inkscape-font-specification:Liberation Sans">40</tspan></text>
<text
         transform="matrix(0,1,1,0,34.66,391.57)"
         id="text3075"><tspan
           x="0 5.5599999"
           y="0"
           id="tspan3077"
           style="font-size:10px;font-variant:normal;font-weight:normal;writing-mode:lr-tb;fill:#000000;fill-opacity:1;fill-rule:nonzero;stroke:none;font-family:Liberation Sans,Arial,sans-serif;-inkscape-font-specification:Liberation Sans">60</tspan></text>
<text
         transform="matrix(0,1,1,0,34.66,417.87)"
         id="text3079"><tspan
           x="0 5.5599999"
           y="0"
           id="tspan3081"
           style="font-size:10px;font-variant:normal;font-weight:normal;writing-mode:lr-tb;fill:#000000;fill-opacity:1;fill-rule:nonzero;stroke:none;font-family:Liberation Sans,Arial,sans-serif;-inkscape-font-specification:Liberation Sans">80</tspan></text>
<text
         transform="matrix(0,1,1,0,34.66,441.4)"
         id="text3083"><tspan
           x="0 5.5599999 11.12"
           y="0"
           id="tspan3085"
           style="font-size:10px;font-variant:normal;font-weight:normal;writing-mode:lr-tb;fill:#000000;fill-opacity:1;fill-rule:nonzero;stroke:none;font-family:Liberation Sans,Arial,sans-serif;-inkscape-font-specification:Liberation Sans">100</tspan></text>
</g><g
       id="g3087"><g
         clip-path="url(#clipPath3091)"
         id="g3089"><text
           transform="matrix(1,0,0,-1,81.94,475.19)"
           id="text3095"><tspan
             x="0 6.3720002 11.04 17.712 25.044001 28.379999 32.375999 35.712002 43.043999 50.375999 57.048 60.383999 63.720001 72.384003 79.356003 86.028 89.363998 97.367996 100.704 108.036"
             y="0"
             id="tspan3097"
             style="font-size:12px;font-variant:normal;font-weight:bold;writing-mode:lr-tb;fill:#000000;fill-opacity:1;fill-rule:nonzero;stroke:none;font-family:Liberation Sans,Arial,sans-serif;-inkscape-font-specification:Liberation Sans-Bold">Traditional Box Plot</tspan></text>
</g></g><g
       id="g3099"><path
         d="m 49,312.96 177.9,0 0,142.04 -177.9,0 0,-142.04"
         id="path3101"
         style="fill:none;stroke:#000000;stroke-width:0.75;stroke-linecap:round;stroke-linejoin:round;stroke-miterlimit:10;stroke-opacity:1;stroke-dasharray:none" /></g><g
       id="g3103"><g
         clip-path="url(#clipPath3107)"
         id="g3105" /></g><g
       id="g3111"><g
         clip-path="url(#clipPath3115)"
         id="g3113"><path
           d="m 332.3,409.11 32.94,0"
           id="path3119"
           style="fill:none;stroke:#000000;stroke-width:2.25;stroke-linecap:butt;stroke-linejoin:round;stroke-miterlimit:10;stroke-opacity:1;stroke-dasharray:none" /><path
           d="m 348.77,375.99 0,21.85"
           id="path3121"
           style="fill:none;stroke:#000000;stroke-width:0.75;stroke-linecap:round;stroke-linejoin:round;stroke-miterlimit:10;stroke-opacity:1;stroke-dasharray:3, 5;stroke-dashoffset:0" /><path
           d="m 348.77,440.54 0,-22.55"
           id="path3123"
           style="fill:none;stroke:#000000;stroke-width:0.75;stroke-linecap:round;stroke-linejoin:round;stroke-miterlimit:10;stroke-opacity:1;stroke-dasharray:3, 5;stroke-dashoffset:0" /><path
           d="m 332.3,375.99 32.94,0"
           id="path3125"
           style="fill:none;stroke:#000000;stroke-width:0.75;stroke-linecap:round;stroke-linejoin:round;stroke-miterlimit:10;stroke-opacity:1;stroke-dasharray:none" /><path
           d="m 332.3,440.54 32.94,0"
           id="path3127"
           style="fill:none;stroke:#000000;stroke-width:0.75;stroke-linecap:round;stroke-linejoin:round;stroke-miterlimit:10;stroke-opacity:1;stroke-dasharray:none" /><path
           d="m 315.83,397.84 65.89,0 0,8.08 -16.48,3.19 16.48,3.18 0,5.7 -65.89,0 0,-5.7 16.47,-3.18 -16.47,-3.19 0,-8.08"
           id="path3129"
           style="fill:none;stroke:#000000;stroke-width:0.75;stroke-linecap:round;stroke-linejoin:round;stroke-miterlimit:10;stroke-opacity:1;stroke-dasharray:none" /><path
           d="m 346.91,361.62 c 0,1.02 0.84,1.86 1.86,1.86 1.03,0 1.86,-0.84 1.86,-1.86 0,-1.03 -0.83,-1.86 -1.86,-1.86 -1.02,0 -1.86,0.83 -1.86,1.86"
           id="path3131"
           style="fill:none;stroke:#000000;stroke-width:0.75;stroke-linecap:round;stroke-linejoin:round;stroke-miterlimit:10;stroke-opacity:1;stroke-dasharray:none" /><path
           d="m 414.66,392.66 32.94,0"
           id="path3133"
           style="fill:none;stroke:#000000;stroke-width:2.25;stroke-linecap:butt;stroke-linejoin:round;stroke-miterlimit:10;stroke-opacity:1;stroke-dasharray:none" /><path
           d="m 431.13,383.85 0,4.6"
           id="path3135"
           style="fill:none;stroke:#000000;stroke-width:0.75;stroke-linecap:round;stroke-linejoin:round;stroke-miterlimit:10;stroke-opacity:1;stroke-dasharray:3, 5;stroke-dashoffset:0" /><path
           d="m 431.13,403.29 0,-4.97"
           id="path3137"
           style="fill:none;stroke:#000000;stroke-width:0.75;stroke-linecap:round;stroke-linejoin:round;stroke-miterlimit:10;stroke-opacity:1;stroke-dasharray:3, 5;stroke-dashoffset:0" /><path
           d="m 414.66,383.85 32.94,0"
           id="path3139"
           style="fill:none;stroke:#000000;stroke-width:0.75;stroke-linecap:round;stroke-linejoin:round;stroke-miterlimit:10;stroke-opacity:1;stroke-dasharray:none" /><path
           d="m 414.66,403.29 32.94,0"
           id="path3141"
           style="fill:none;stroke:#000000;stroke-width:0.75;stroke-linecap:round;stroke-linejoin:round;stroke-miterlimit:10;stroke-opacity:1;stroke-dasharray:none" /><path
           d="m 398.19,388.45 65.89,0 0,0.72 -16.48,3.49 16.48,3.49 0,2.17 -65.89,0 0,-2.17 16.47,-3.49 -16.47,-3.49 0,-0.72"
           id="path3143"
           style="fill:none;stroke:#000000;stroke-width:0.75;stroke-linecap:round;stroke-linejoin:round;stroke-miterlimit:10;stroke-opacity:1;stroke-dasharray:none" /><path
           d="m 429.27,416.86 c 0,1.02 0.84,1.86 1.86,1.86 1.03,0 1.86,-0.84 1.86,-1.86 0,-1.03 -0.83,-1.86 -1.86,-1.86 -1.02,0 -1.86,0.83 -1.86,1.86"
           id="path3145"
           style="fill:none;stroke:#000000;stroke-width:0.75;stroke-linecap:round;stroke-linejoin:round;stroke-miterlimit:10;stroke-opacity:1;stroke-dasharray:none" /></g></g><g
       id="g3147"><path
         d="m 348.77,312.96 82.36,0"
         id="path3149"
         style="fill:none;stroke:#000000;stroke-width:0.75;stroke-linecap:round;stroke-linejoin:round;stroke-miterlimit:10;stroke-opacity:1;stroke-dasharray:none" /><path
         d="m 348.77,312.96 0,-5.98"
         id="path3151"
         style="fill:none;stroke:#000000;stroke-width:0.75;stroke-linecap:round;stroke-linejoin:round;stroke-miterlimit:10;stroke-opacity:1;stroke-dasharray:none" /><path
         d="m 431.13,312.96 0,-5.98"
         id="path3153"
         style="fill:none;stroke:#000000;stroke-width:0.75;stroke-linecap:round;stroke-linejoin:round;stroke-miterlimit:10;stroke-opacity:1;stroke-dasharray:none" /><text
         transform="matrix(1,0,0,-1,330.71,291.44)"
         id="text3155"><tspan
           x="0 7.7800002 11.11 16.67 22.23 27.790001 30.57"
           y="0"
           id="tspan3157"
           style="font-size:10px;font-variant:normal;font-weight:normal;writing-mode:lr-tb;fill:#000000;fill-opacity:1;fill-rule:nonzero;stroke:none;font-family:Liberation Sans,Arial,sans-serif;-inkscape-font-specification:Liberation Sans">Group 1</tspan></text>
<text
         transform="matrix(1,0,0,-1,413.07,291.44)"
         id="text3159"><tspan
           x="0 7.7800002 11.11 16.67 22.23 27.790001 30.57"
           y="0"
           id="tspan3161"
           style="font-size:10px;font-variant:normal;font-weight:normal;writing-mode:lr-tb;fill:#000000;fill-opacity:1;fill-rule:nonzero;stroke:none;font-family:Liberation Sans,Arial,sans-serif;-inkscape-font-specification:Liberation Sans">Group 2</tspan></text>
<path
         d="m 301,318.22 0,131.52"
         id="path3163"
         style="fill:none;stroke:#000000;stroke-width:0.75;stroke-linecap:round;stroke-linejoin:round;stroke-miterlimit:10;stroke-opacity:1;stroke-dasharray:none" /><path
         d="m 301,318.22 -5.97,0"
         id="path3165"
         style="fill:none;stroke:#000000;stroke-width:0.75;stroke-linecap:round;stroke-linejoin:round;stroke-miterlimit:10;stroke-opacity:1;stroke-dasharray:none" /><path
         d="m 301,344.52 -5.97,0"
         id="path3167"
         style="fill:none;stroke:#000000;stroke-width:0.75;stroke-linecap:round;stroke-linejoin:round;stroke-miterlimit:10;stroke-opacity:1;stroke-dasharray:none" /><path
         d="m 301,370.82 -5.97,0"
         id="path3169"
         style="fill:none;stroke:#000000;stroke-width:0.75;stroke-linecap:round;stroke-linejoin:round;stroke-miterlimit:10;stroke-opacity:1;stroke-dasharray:none" /><path
         d="m 301,397.13 -5.97,0"
         id="path3171"
         style="fill:none;stroke:#000000;stroke-width:0.75;stroke-linecap:round;stroke-linejoin:round;stroke-miterlimit:10;stroke-opacity:1;stroke-dasharray:none" /><path
         d="m 301,423.43 -5.97,0"
         id="path3173"
         style="fill:none;stroke:#000000;stroke-width:0.75;stroke-linecap:round;stroke-linejoin:round;stroke-miterlimit:10;stroke-opacity:1;stroke-dasharray:none" /><path
         d="m 301,449.74 -5.97,0"
         id="path3175"
         style="fill:none;stroke:#000000;stroke-width:0.75;stroke-linecap:round;stroke-linejoin:round;stroke-miterlimit:10;stroke-opacity:1;stroke-dasharray:none" /><text
         transform="matrix(0,1,1,0,286.66,315.44)"
         id="text3177"><tspan
           x="0"
           y="0"
           id="tspan3179"
           style="font-size:10px;font-variant:normal;font-weight:normal;writing-mode:lr-tb;fill:#000000;fill-opacity:1;fill-rule:nonzero;stroke:none;font-family:Liberation Sans,Arial,sans-serif;-inkscape-font-specification:Liberation Sans">0</tspan></text>
<text
         transform="matrix(0,1,1,0,286.66,338.96)"
         id="text3181"><tspan
           x="0 5.5599999"
           y="0"
           id="tspan3183"
           style="font-size:10px;font-variant:normal;font-weight:normal;writing-mode:lr-tb;fill:#000000;fill-opacity:1;fill-rule:nonzero;stroke:none;font-family:Liberation Sans,Arial,sans-serif;-inkscape-font-specification:Liberation Sans">20</tspan></text>
<text
         transform="matrix(0,1,1,0,286.66,365.26)"
         id="text3185"><tspan
           x="0 5.5599999"
           y="0"
           id="tspan3187"
           style="font-size:10px;font-variant:normal;font-weight:normal;writing-mode:lr-tb;fill:#000000;fill-opacity:1;fill-rule:nonzero;stroke:none;font-family:Liberation Sans,Arial,sans-serif;-inkscape-font-specification:Liberation Sans">40</tspan></text>
<text
         transform="matrix(0,1,1,0,286.66,391.57)"
         id="text3189"><tspan
           x="0 5.5599999"
           y="0"
           id="tspan3191"
           style="font-size:10px;font-variant:normal;font-weight:normal;writing-mode:lr-tb;fill:#000000;fill-opacity:1;fill-rule:nonzero;stroke:none;font-family:Liberation Sans,Arial,sans-serif;-inkscape-font-specification:Liberation Sans">60</tspan></text>
<text
         transform="matrix(0,1,1,0,286.66,417.87)"
         id="text3193"><tspan
           x="0 5.5599999"
           y="0"
           id="tspan3195"
           style="font-size:10px;font-variant:normal;font-weight:normal;writing-mode:lr-tb;fill:#000000;fill-opacity:1;fill-rule:nonzero;stroke:none;font-family:Liberation Sans,Arial,sans-serif;-inkscape-font-specification:Liberation Sans">80</tspan></text>
<text
         transform="matrix(0,1,1,0,286.66,441.4)"
         id="text3197"><tspan
           x="0 5.5599999 11.12"
           y="0"
           id="tspan3199"
           style="font-size:10px;font-variant:normal;font-weight:normal;writing-mode:lr-tb;fill:#000000;fill-opacity:1;fill-rule:nonzero;stroke:none;font-family:Liberation Sans,Arial,sans-serif;-inkscape-font-specification:Liberation Sans">100</tspan></text>
</g><g
       id="g3201"><g
         clip-path="url(#clipPath3205)"
         id="g3203"><text
           transform="matrix(1,0,0,-1,340.19,475.19)"
           id="text3209"><tspan
             x="0 8.6639996 15.996 19.992001 26.544001 33.875999 40.548 47.880001 51.216 59.880001 66.851997 73.524002 76.860001 84.863998 88.199997 95.531998"
             y="0"
             id="tspan3211"
             style="font-size:12px;font-variant:normal;font-weight:bold;writing-mode:lr-tb;fill:#000000;fill-opacity:1;fill-rule:nonzero;stroke:none;font-family:Liberation Sans,Arial,sans-serif;-inkscape-font-specification:Liberation Sans-Bold">Notched Box Plot</tspan></text>
</g></g><g
       id="g3213"><path
         d="m 301,312.96 177.9,0 0,142.04 -177.9,0 0,-142.04"
         id="path3215"
         style="fill:none;stroke:#000000;stroke-width:0.75;stroke-linecap:round;stroke-linejoin:round;stroke-miterlimit:10;stroke-opacity:1;stroke-dasharray:none" /></g><g
       id="g3217"><g
         clip-path="url(#clipPath3221)"
         id="g3219" /></g><g
       id="g3225"><g
         clip-path="url(#clipPath3229)"
         id="g3227"><path
           d="m 63.83,157.11 65.89,0"
           id="path3233"
           style="fill:none;stroke:#000000;stroke-width:2.25;stroke-linecap:butt;stroke-linejoin:round;stroke-miterlimit:10;stroke-opacity:1;stroke-dasharray:none" /><path
           d="m 96.77,123.99 0,21.85"
           id="path3235"
           style="fill:none;stroke:#000000;stroke-width:0.75;stroke-linecap:round;stroke-linejoin:round;stroke-miterlimit:10;stroke-opacity:1;stroke-dasharray:3, 5;stroke-dashoffset:0" /><path
           d="m 96.77,188.54 0,-22.55"
           id="path3237"
           style="fill:none;stroke:#000000;stroke-width:0.75;stroke-linecap:round;stroke-linejoin:round;stroke-miterlimit:10;stroke-opacity:1;stroke-dasharray:3, 5;stroke-dashoffset:0" /><path
           d="m 80.3,123.99 32.94,0"
           id="path3239"
           style="fill:none;stroke:#000000;stroke-width:0.75;stroke-linecap:round;stroke-linejoin:round;stroke-miterlimit:10;stroke-opacity:1;stroke-dasharray:none" /><path
           d="m 80.3,188.54 32.94,0"
           id="path3241"
           style="fill:none;stroke:#000000;stroke-width:0.75;stroke-linecap:round;stroke-linejoin:round;stroke-miterlimit:10;stroke-opacity:1;stroke-dasharray:none" /><path
           d="m 63.83,145.84 65.89,0 0,20.15 -65.89,0 0,-20.15"
           id="path3243"
           style="fill:none;stroke:#000000;stroke-width:0.75;stroke-linecap:round;stroke-linejoin:round;stroke-miterlimit:10;stroke-opacity:1;stroke-dasharray:none" /><path
           d="m 94.91,109.62 c 0,1.02 0.84,1.86 1.86,1.86 1.03,0 1.86,-0.84 1.86,-1.86 0,-1.03 -0.83,-1.86 -1.86,-1.86 -1.02,0 -1.86,0.83 -1.86,1.86"
           id="path3245"
           style="fill:none;stroke:#000000;stroke-width:0.75;stroke-linecap:round;stroke-linejoin:round;stroke-miterlimit:10;stroke-opacity:1;stroke-dasharray:none" /><path
           d="m 164.4,140.66 29.47,0"
           id="path3247"
           style="fill:none;stroke:#000000;stroke-width:2.25;stroke-linecap:butt;stroke-linejoin:round;stroke-miterlimit:10;stroke-opacity:1;stroke-dasharray:none" /><path
           d="m 179.13,131.85 0,4.6"
           id="path3249"
           style="fill:none;stroke:#000000;stroke-width:0.75;stroke-linecap:round;stroke-linejoin:round;stroke-miterlimit:10;stroke-opacity:1;stroke-dasharray:3, 5;stroke-dashoffset:0" /><path
           d="m 179.13,151.29 0,-4.97"
           id="path3251"
           style="fill:none;stroke:#000000;stroke-width:0.75;stroke-linecap:round;stroke-linejoin:round;stroke-miterlimit:10;stroke-opacity:1;stroke-dasharray:3, 5;stroke-dashoffset:0" /><path
           d="m 171.77,131.85 14.73,0"
           id="path3253"
           style="fill:none;stroke:#000000;stroke-width:0.75;stroke-linecap:round;stroke-linejoin:round;stroke-miterlimit:10;stroke-opacity:1;stroke-dasharray:none" /><path
           d="m 171.77,151.29 14.73,0"
           id="path3255"
           style="fill:none;stroke:#000000;stroke-width:0.75;stroke-linecap:round;stroke-linejoin:round;stroke-miterlimit:10;stroke-opacity:1;stroke-dasharray:none" /><path
           d="m 164.4,136.45 29.47,0 0,9.87 -29.47,0 0,-9.87"
           id="path3257"
           style="fill:none;stroke:#000000;stroke-width:0.75;stroke-linecap:round;stroke-linejoin:round;stroke-miterlimit:10;stroke-opacity:1;stroke-dasharray:none" /><path
           d="m 177.27,164.86 c 0,1.02 0.84,1.86 1.86,1.86 1.03,0 1.86,-0.84 1.86,-1.86 0,-1.03 -0.83,-1.86 -1.86,-1.86 -1.02,0 -1.86,0.83 -1.86,1.86"
           id="path3259"
           style="fill:none;stroke:#000000;stroke-width:0.75;stroke-linecap:round;stroke-linejoin:round;stroke-miterlimit:10;stroke-opacity:1;stroke-dasharray:none" /></g></g><g
       id="g3261"><path
         d="m 96.77,60.96 82.36,0"
         id="path3263"
         style="fill:none;stroke:#000000;stroke-width:0.75;stroke-linecap:round;stroke-linejoin:round;stroke-miterlimit:10;stroke-opacity:1;stroke-dasharray:none" /><path
         d="m 96.77,60.96 0,-5.98"
         id="path3265"
         style="fill:none;stroke:#000000;stroke-width:0.75;stroke-linecap:round;stroke-linejoin:round;stroke-miterlimit:10;stroke-opacity:1;stroke-dasharray:none" /><path
         d="m 179.13,60.96 0,-5.98"
         id="path3267"
         style="fill:none;stroke:#000000;stroke-width:0.75;stroke-linecap:round;stroke-linejoin:round;stroke-miterlimit:10;stroke-opacity:1;stroke-dasharray:none" /><text
         transform="matrix(1,0,0,-1,78.71,39.44)"
         id="text3269"><tspan
           x="0 7.7800002 11.11 16.67 22.23 27.790001 30.57"
           y="0"
           id="tspan3271"
           style="font-size:10px;font-variant:normal;font-weight:normal;writing-mode:lr-tb;fill:#000000;fill-opacity:1;fill-rule:nonzero;stroke:none;font-family:Liberation Sans,Arial,sans-serif;-inkscape-font-specification:Liberation Sans">Group 1</tspan></text>
<text
         transform="matrix(1,0,0,-1,161.07,39.44)"
         id="text3273"><tspan
           x="0 7.7800002 11.11 16.67 22.23 27.790001 30.57"
           y="0"
           id="tspan3275"
           style="font-size:10px;font-variant:normal;font-weight:normal;writing-mode:lr-tb;fill:#000000;fill-opacity:1;fill-rule:nonzero;stroke:none;font-family:Liberation Sans,Arial,sans-serif;-inkscape-font-specification:Liberation Sans">Group 2</tspan></text>
<path
         d="m 49,66.22 0,131.52"
         id="path3277"
         style="fill:none;stroke:#000000;stroke-width:0.75;stroke-linecap:round;stroke-linejoin:round;stroke-miterlimit:10;stroke-opacity:1;stroke-dasharray:none" /><path
         d="m 49,66.22 -5.97,0"
         id="path3279"
         style="fill:none;stroke:#000000;stroke-width:0.75;stroke-linecap:round;stroke-linejoin:round;stroke-miterlimit:10;stroke-opacity:1;stroke-dasharray:none" /><path
         d="m 49,92.52 -5.97,0"
         id="path3281"
         style="fill:none;stroke:#000000;stroke-width:0.75;stroke-linecap:round;stroke-linejoin:round;stroke-miterlimit:10;stroke-opacity:1;stroke-dasharray:none" /><path
         d="m 49,118.82 -5.97,0"
         id="path3283"
         style="fill:none;stroke:#000000;stroke-width:0.75;stroke-linecap:round;stroke-linejoin:round;stroke-miterlimit:10;stroke-opacity:1;stroke-dasharray:none" /><path
         d="m 49,145.13 -5.97,0"
         id="path3285"
         style="fill:none;stroke:#000000;stroke-width:0.75;stroke-linecap:round;stroke-linejoin:round;stroke-miterlimit:10;stroke-opacity:1;stroke-dasharray:none" /><path
         d="m 49,171.43 -5.97,0"
         id="path3287"
         style="fill:none;stroke:#000000;stroke-width:0.75;stroke-linecap:round;stroke-linejoin:round;stroke-miterlimit:10;stroke-opacity:1;stroke-dasharray:none" /><path
         d="m 49,197.74 -5.97,0"
         id="path3289"
         style="fill:none;stroke:#000000;stroke-width:0.75;stroke-linecap:round;stroke-linejoin:round;stroke-miterlimit:10;stroke-opacity:1;stroke-dasharray:none" /><text
         transform="matrix(0,1,1,0,34.66,63.44)"
         id="text3291"><tspan
           x="0"
           y="0"
           id="tspan3293"
           style="font-size:10px;font-variant:normal;font-weight:normal;writing-mode:lr-tb;fill:#000000;fill-opacity:1;fill-rule:nonzero;stroke:none;font-family:Liberation Sans,Arial,sans-serif;-inkscape-font-specification:Liberation Sans">0</tspan></text>
<text
         transform="matrix(0,1,1,0,34.66,86.96)"
         id="text3295"><tspan
           x="0 5.5599999"
           y="0"
           id="tspan3297"
           style="font-size:10px;font-variant:normal;font-weight:normal;writing-mode:lr-tb;fill:#000000;fill-opacity:1;fill-rule:nonzero;stroke:none;font-family:Liberation Sans,Arial,sans-serif;-inkscape-font-specification:Liberation Sans">20</tspan></text>
<text
         transform="matrix(0,1,1,0,34.66,113.26)"
         id="text3299"><tspan
           x="0 5.5599999"
           y="0"
           id="tspan3301"
           style="font-size:10px;font-variant:normal;font-weight:normal;writing-mode:lr-tb;fill:#000000;fill-opacity:1;fill-rule:nonzero;stroke:none;font-family:Liberation Sans,Arial,sans-serif;-inkscape-font-specification:Liberation Sans">40</tspan></text>
<text
         transform="matrix(0,1,1,0,34.66,139.57)"
         id="text3303"><tspan
           x="0 5.5599999"
           y="0"
           id="tspan3305"
           style="font-size:10px;font-variant:normal;font-weight:normal;writing-mode:lr-tb;fill:#000000;fill-opacity:1;fill-rule:nonzero;stroke:none;font-family:Liberation Sans,Arial,sans-serif;-inkscape-font-specification:Liberation Sans">60</tspan></text>
<text
         transform="matrix(0,1,1,0,34.66,165.87)"
         id="text3307"><tspan
           x="0 5.5599999"
           y="0"
           id="tspan3309"
           style="font-size:10px;font-variant:normal;font-weight:normal;writing-mode:lr-tb;fill:#000000;fill-opacity:1;fill-rule:nonzero;stroke:none;font-family:Liberation Sans,Arial,sans-serif;-inkscape-font-specification:Liberation Sans">80</tspan></text>
<text
         transform="matrix(0,1,1,0,34.66,189.4)"
         id="text3311"><tspan
           x="0 5.5599999 11.12"
           y="0"
           id="tspan3313"
           style="font-size:10px;font-variant:normal;font-weight:normal;writing-mode:lr-tb;fill:#000000;fill-opacity:1;fill-rule:nonzero;stroke:none;font-family:Liberation Sans,Arial,sans-serif;-inkscape-font-specification:Liberation Sans">100</tspan></text>
</g><g
       id="g3315"><g
         clip-path="url(#clipPath3319)"
         id="g3317"><text
           transform="matrix(1,0,0,-1,70.87,223.19)"
           id="text3323"><tspan
             x="0 7.2839999 13.956 18.624001 21.959999 28.632 35.844002 39.18 45.852001 49.188 60.515999 63.852001 71.183998 75.18 82.512001 85.848 94.512001 101.484 108.156 111.492 119.496 122.832 130.164"
             y="0"
             id="tspan3325"
             style="font-size:12px;font-variant:normal;font-weight:bold;writing-mode:lr-tb;fill:#000000;fill-opacity:1;fill-rule:nonzero;stroke:none;font-family:Liberation Sans,Arial,sans-serif;-inkscape-font-specification:Liberation Sans-Bold">Variable Width Box Plot</tspan></text>
</g></g><g
       id="g3327"><path
         d="m 49,60.96 177.9,0 0,142.04 L 49,203 49,60.96"
         id="path3329"
         style="fill:none;stroke:#000000;stroke-width:0.75;stroke-linecap:round;stroke-linejoin:round;stroke-miterlimit:10;stroke-opacity:1;stroke-dasharray:none" /></g><g
       id="g3331"><g
         clip-path="url(#clipPath3335)"
         id="g3333" /></g><g
       id="g3339"><g
         clip-path="url(#clipPath3343)"
         id="g3341"><path
           d="m 332.3,157.11 32.94,0"
           id="path3347"
           style="fill:none;stroke:#000000;stroke-width:2.25;stroke-linecap:butt;stroke-linejoin:round;stroke-miterlimit:10;stroke-opacity:1;stroke-dasharray:none" /><path
           d="m 348.77,123.99 0,21.85"
           id="path3349"
           style="fill:none;stroke:#000000;stroke-width:0.75;stroke-linecap:round;stroke-linejoin:round;stroke-miterlimit:10;stroke-opacity:1;stroke-dasharray:3, 5;stroke-dashoffset:0" /><path
           d="m 348.77,188.54 0,-22.55"
           id="path3351"
           style="fill:none;stroke:#000000;stroke-width:0.75;stroke-linecap:round;stroke-linejoin:round;stroke-miterlimit:10;stroke-opacity:1;stroke-dasharray:3, 5;stroke-dashoffset:0" /><path
           d="m 332.3,123.99 32.94,0"
           id="path3353"
           style="fill:none;stroke:#000000;stroke-width:0.75;stroke-linecap:round;stroke-linejoin:round;stroke-miterlimit:10;stroke-opacity:1;stroke-dasharray:none" /><path
           d="m 332.3,188.54 32.94,0"
           id="path3355"
           style="fill:none;stroke:#000000;stroke-width:0.75;stroke-linecap:round;stroke-linejoin:round;stroke-miterlimit:10;stroke-opacity:1;stroke-dasharray:none" /><path
           d="m 315.83,145.84 65.89,0 0,8.08 -16.48,3.19 16.48,3.18 0,5.7 -65.89,0 0,-5.7 16.47,-3.18 -16.47,-3.19 0,-8.08"
           id="path3357"
           style="fill:none;stroke:#000000;stroke-width:0.75;stroke-linecap:round;stroke-linejoin:round;stroke-miterlimit:10;stroke-opacity:1;stroke-dasharray:none" /><path
           d="m 346.91,109.62 c 0,1.02 0.84,1.86 1.86,1.86 1.03,0 1.86,-0.84 1.86,-1.86 0,-1.03 -0.83,-1.86 -1.86,-1.86 -1.02,0 -1.86,0.83 -1.86,1.86"
           id="path3359"
           style="fill:none;stroke:#000000;stroke-width:0.75;stroke-linecap:round;stroke-linejoin:round;stroke-miterlimit:10;stroke-opacity:1;stroke-dasharray:none" /><path
           d="m 423.77,140.66 14.73,0"
           id="path3361"
           style="fill:none;stroke:#000000;stroke-width:2.25;stroke-linecap:butt;stroke-linejoin:round;stroke-miterlimit:10;stroke-opacity:1;stroke-dasharray:none" /><path
           d="m 431.13,131.85 0,4.6"
           id="path3363"
           style="fill:none;stroke:#000000;stroke-width:0.75;stroke-linecap:round;stroke-linejoin:round;stroke-miterlimit:10;stroke-opacity:1;stroke-dasharray:3, 5;stroke-dashoffset:0" /><path
           d="m 431.13,151.29 0,-4.97"
           id="path3365"
           style="fill:none;stroke:#000000;stroke-width:0.75;stroke-linecap:round;stroke-linejoin:round;stroke-miterlimit:10;stroke-opacity:1;stroke-dasharray:3, 5;stroke-dashoffset:0" /><path
           d="m 423.77,131.85 14.73,0"
           id="path3367"
           style="fill:none;stroke:#000000;stroke-width:0.75;stroke-linecap:round;stroke-linejoin:round;stroke-miterlimit:10;stroke-opacity:1;stroke-dasharray:none" /><path
           d="m 423.77,151.29 14.73,0"
           id="path3369"
           style="fill:none;stroke:#000000;stroke-width:0.75;stroke-linecap:round;stroke-linejoin:round;stroke-miterlimit:10;stroke-opacity:1;stroke-dasharray:none" /><path
           d="m 416.4,136.45 29.47,0 0,0.72 -7.37,3.49 7.37,3.49 0,2.17 -29.47,0 0,-2.17 7.37,-3.49 -7.37,-3.49 0,-0.72"
           id="path3371"
           style="fill:none;stroke:#000000;stroke-width:0.75;stroke-linecap:round;stroke-linejoin:round;stroke-miterlimit:10;stroke-opacity:1;stroke-dasharray:none" /><path
           d="m 429.27,164.86 c 0,1.02 0.84,1.86 1.86,1.86 1.03,0 1.86,-0.84 1.86,-1.86 0,-1.03 -0.83,-1.86 -1.86,-1.86 -1.02,0 -1.86,0.83 -1.86,1.86"
           id="path3373"
           style="fill:none;stroke:#000000;stroke-width:0.75;stroke-linecap:round;stroke-linejoin:round;stroke-miterlimit:10;stroke-opacity:1;stroke-dasharray:none" /></g></g><g
       id="g3375"><path
         d="m 348.77,60.96 82.36,0"
         id="path3377"
         style="fill:none;stroke:#000000;stroke-width:0.75;stroke-linecap:round;stroke-linejoin:round;stroke-miterlimit:10;stroke-opacity:1;stroke-dasharray:none" /><path
         d="m 348.77,60.96 0,-5.98"
         id="path3379"
         style="fill:none;stroke:#000000;stroke-width:0.75;stroke-linecap:round;stroke-linejoin:round;stroke-miterlimit:10;stroke-opacity:1;stroke-dasharray:none" /><path
         d="m 431.13,60.96 0,-5.98"
         id="path3381"
         style="fill:none;stroke:#000000;stroke-width:0.75;stroke-linecap:round;stroke-linejoin:round;stroke-miterlimit:10;stroke-opacity:1;stroke-dasharray:none" /><text
         transform="matrix(1,0,0,-1,330.71,39.44)"
         id="text3383"><tspan
           x="0 7.7800002 11.11 16.67 22.23 27.790001 30.57"
           y="0"
           id="tspan3385"
           style="font-size:10px;font-variant:normal;font-weight:normal;writing-mode:lr-tb;fill:#000000;fill-opacity:1;fill-rule:nonzero;stroke:none;font-family:Liberation Sans,Arial,sans-serif;-inkscape-font-specification:Liberation Sans">Group 1</tspan></text>
<text
         transform="matrix(1,0,0,-1,413.07,39.44)"
         id="text3387"><tspan
           x="0 7.7800002 11.11 16.67 22.23 27.790001 30.57"
           y="0"
           id="tspan3389"
           style="font-size:10px;font-variant:normal;font-weight:normal;writing-mode:lr-tb;fill:#000000;fill-opacity:1;fill-rule:nonzero;stroke:none;font-family:Liberation Sans,Arial,sans-serif;-inkscape-font-specification:Liberation Sans">Group 2</tspan></text>
<path
         d="m 301,66.22 0,131.52"
         id="path3391"
         style="fill:none;stroke:#000000;stroke-width:0.75;stroke-linecap:round;stroke-linejoin:round;stroke-miterlimit:10;stroke-opacity:1;stroke-dasharray:none" /><path
         d="m 301,66.22 -5.97,0"
         id="path3393"
         style="fill:none;stroke:#000000;stroke-width:0.75;stroke-linecap:round;stroke-linejoin:round;stroke-miterlimit:10;stroke-opacity:1;stroke-dasharray:none" /><path
         d="m 301,92.52 -5.97,0"
         id="path3395"
         style="fill:none;stroke:#000000;stroke-width:0.75;stroke-linecap:round;stroke-linejoin:round;stroke-miterlimit:10;stroke-opacity:1;stroke-dasharray:none" /><path
         d="m 301,118.82 -5.97,0"
         id="path3397"
         style="fill:none;stroke:#000000;stroke-width:0.75;stroke-linecap:round;stroke-linejoin:round;stroke-miterlimit:10;stroke-opacity:1;stroke-dasharray:none" /><path
         d="m 301,145.13 -5.97,0"
         id="path3399"
         style="fill:none;stroke:#000000;stroke-width:0.75;stroke-linecap:round;stroke-linejoin:round;stroke-miterlimit:10;stroke-opacity:1;stroke-dasharray:none" /><path
         d="m 301,171.43 -5.97,0"
         id="path3401"
         style="fill:none;stroke:#000000;stroke-width:0.75;stroke-linecap:round;stroke-linejoin:round;stroke-miterlimit:10;stroke-opacity:1;stroke-dasharray:none" /><path
         d="m 301,197.74 -5.97,0"
         id="path3403"
         style="fill:none;stroke:#000000;stroke-width:0.75;stroke-linecap:round;stroke-linejoin:round;stroke-miterlimit:10;stroke-opacity:1;stroke-dasharray:none" /><text
         transform="matrix(0,1,1,0,286.66,63.44)"
         id="text3405"><tspan
           x="0"
           y="0"
           id="tspan3407"
           style="font-size:10px;font-variant:normal;font-weight:normal;writing-mode:lr-tb;fill:#000000;fill-opacity:1;fill-rule:nonzero;stroke:none;font-family:Liberation Sans,Arial,sans-serif;-inkscape-font-specification:Liberation Sans">0</tspan></text>
<text
         transform="matrix(0,1,1,0,286.66,86.96)"
         id="text3409"><tspan
           x="0 5.5599999"
           y="0"
           id="tspan3411"
           style="font-size:10px;font-variant:normal;font-weight:normal;writing-mode:lr-tb;fill:#000000;fill-opacity:1;fill-rule:nonzero;stroke:none;font-family:Liberation Sans,Arial,sans-serif;-inkscape-font-specification:Liberation Sans">20</tspan></text>
<text
         transform="matrix(0,1,1,0,286.66,113.26)"
         id="text3413"><tspan
           x="0 5.5599999"
           y="0"
           id="tspan3415"
           style="font-size:10px;font-variant:normal;font-weight:normal;writing-mode:lr-tb;fill:#000000;fill-opacity:1;fill-rule:nonzero;stroke:none;font-family:Liberation Sans,Arial,sans-serif;-inkscape-font-specification:Liberation Sans">40</tspan></text>
<text
         transform="matrix(0,1,1,0,286.66,139.57)"
         id="text3417"><tspan
           x="0 5.5599999"
           y="0"
           id="tspan3419"
           style="font-size:10px;font-variant:normal;font-weight:normal;writing-mode:lr-tb;fill:#000000;fill-opacity:1;fill-rule:nonzero;stroke:none;font-family:Liberation Sans,Arial,sans-serif;-inkscape-font-specification:Liberation Sans">60</tspan></text>
<text
         transform="matrix(0,1,1,0,286.66,165.87)"
         id="text3421"><tspan
           x="0 5.5599999"
           y="0"
           id="tspan3423"
           style="font-size:10px;font-variant:normal;font-weight:normal;writing-mode:lr-tb;fill:#000000;fill-opacity:1;fill-rule:nonzero;stroke:none;font-family:Liberation Sans,Arial,sans-serif;-inkscape-font-specification:Liberation Sans">80</tspan></text>
<text
         transform="matrix(0,1,1,0,286.66,189.4)"
         id="text3425"><tspan
           x="0 5.5599999 11.12"
           y="0"
           id="tspan3427"
           style="font-size:10px;font-variant:normal;font-weight:normal;writing-mode:lr-tb;fill:#000000;fill-opacity:1;fill-rule:nonzero;stroke:none;font-family:Liberation Sans,Arial,sans-serif;-inkscape-font-specification:Liberation Sans">100</tspan></text>
</g><g
       id="g3429"><g
         clip-path="url(#clipPath3433)"
         id="g3431"><text
           transform="matrix(1,0,0,-1,297.26,223.19)"
           id="text3437"><tspan
             x="0 7.2839999 13.956 18.624001 21.959999 28.632 35.844002 39.18 45.852001 49.188 60.515999 63.852001 71.183998 75.18 82.512001 85.848 94.512001 101.844 105.84 112.392 119.724 126.396 133.728 137.064 145.728 152.7 159.37199 162.70799 170.71201 174.048 181.38"
             y="0"
             id="tspan3439"
             style="font-size:12px;font-variant:normal;font-weight:bold;writing-mode:lr-tb;fill:#000000;fill-opacity:1;fill-rule:nonzero;stroke:none;font-family:Liberation Sans,Arial,sans-serif;-inkscape-font-specification:Liberation Sans-Bold">Variable Width Notched Box Plot</tspan></text>
</g></g><g
       id="g3441"><path
         d="m 301,60.96 177.9,0 0,142.04 -177.9,0 0,-142.04"
         id="path3443"
         style="fill:none;stroke:#000000;stroke-width:0.75;stroke-linecap:round;stroke-linejoin:round;stroke-miterlimit:10;stroke-opacity:1;stroke-dasharray:none" /></g></g></svg>